<svg xmlns="http://www.w3.org/2000/svg" viewBox="0 0 512 512">
    <path fill="#001524" d="M512 256a88 88 0 00-57-82A88 88 0 00338 57a88 88 0 00-164 0A88 88 0 0057 174a88 88 0 000 164 88 88 0 00117 117 88 88 0 00164 0 88 88 0 00117-117 88 88 0 0057-82zm-232 94v18a16 16 0 01-16 16h-16a16 16 0 01-16-16v-18a73 73 0 01-32-11c-6-4-7-13-1-19l17-17c4-4 9-4 14-2a25 25 0 0011 2h32a8 8 0 003-16l-50-15c-23-6-40-24-43-47a56 56 0 0149-63v-18a16 16 0 0116-16h16a16 16 0 0116 16v18a73 73 0 0132 11c6 4 7 13 1 19l-17 17c-4 4-9 4-14 2a25 25 0 00-11-2h-32a8 8 0 00-3 16l50 15c23 6 40 24 43 47a56 56 0 01-49 63z" />
    <path fill="#fff" d="M280 350v18a16 16 0 01-16 16h-16a16 16 0 01-16-16v-18a73 73 0 01-32-11c-6-4-7-13-1-19l17-17c4-4 9-4 14-2a25 25 0 0011 2h32a8 8 0 003-16l-50-15c-23-6-40-24-43-47a56 56 0 0149-63v-18a16 16 0 0116-16h16a16 16 0 0116 16v18a73 73 0 0132 11c6 4 7 13 1 19l-17 17c-4 4-9 4-14 2a25 25 0 00-11-2h-32a8 8 0 00-3 16l50 15c23 6 40 24 43 47a56 56 0 01-49 63z" />
</svg>